<svg width="23" height="23" viewBox="0 0 23 23" fill="none" xmlns="http://www.w3.org/2000/svg">
<path d="M1.4375 11.5C1.4375 15.8844 4.24062 19.6219 8.19375 20.9875C8.69687 21.1313 8.625 20.7719 8.625 20.4844V18.7594C5.60625 19.1188 5.4625 17.1063 5.24688 16.7469C4.81563 16.0281 3.88125 15.8844 4.16875 15.525C4.8875 15.1656 5.60625 15.5969 6.39687 16.8188C6.97187 17.6813 8.12187 17.5375 8.76875 17.3938C8.9125 16.8906 9.2 16.3875 9.55938 16.0281C6.325 15.525 5.03125 13.5844 5.03125 11.2844C5.03125 10.2063 5.39062 9.12813 6.10938 8.3375C5.60625 6.97188 6.10938 5.75 6.18125 5.60625C7.475 5.4625 8.84062 6.54063 8.98438 6.6125C9.70312 6.39688 10.5656 6.325 11.5 6.325C12.4344 6.325 13.2969 6.46875 14.0156 6.6125C14.3031 6.39688 15.525 5.53438 16.7469 5.60625C16.8187 5.75 17.3219 6.9 16.8906 8.26563C17.6094 9.12813 17.9688 10.1344 17.9688 11.2125C17.9688 13.5125 16.675 15.4531 13.4406 16.0281C13.9438 16.5313 14.3031 17.25 14.3031 18.1125V20.6281C14.3031 20.8438 14.3031 21.0594 14.6625 21.0594C18.6875 19.6938 21.5625 15.9563 21.5625 11.5C21.5625 5.96563 17.0344 1.4375 11.5 1.4375C5.96563 1.4375 1.4375 5.96563 1.4375 11.5Z" fill="#333132"/>
</svg>
