<svg width="20" height="20" viewBox="0 0 20 20" fill="none" xmlns="http://www.w3.org/2000/svg">
<path d="M10 20C15.5228 20 20 15.5228 20 10C20 4.47715 15.5228 0 10 0C4.47715 0 0 4.47715 0 10C0 15.5228 4.47715 20 10 20Z" fill="#333132"/>
<path d="M10.0001 4.06726C8.39002 4.06726 8.18497 4.07398 7.55304 4.10424C6.92111 4.13449 6.49086 4.23197 6.11438 4.37987C5.72447 4.53113 5.3917 4.73281 5.06228 5.06558C4.73287 5.39499 4.53119 5.72777 4.37657 6.11768C4.22867 6.49415 4.12783 6.92777 4.10094 7.55634C4.07405 8.18827 4.06396 8.38995 4.06396 10.0034C4.06396 11.6135 4.07069 11.8152 4.10094 12.4505C4.13119 13.0824 4.22867 13.5126 4.37657 13.8891C4.52783 14.279 4.72951 14.6118 5.06228 14.9412C5.3917 15.2706 5.72447 15.4757 6.11438 15.6269C6.49086 15.7748 6.92447 15.8723 7.55304 15.9026C8.18497 15.9328 8.38665 15.9395 10.0001 15.9395C11.6102 15.9395 11.8119 15.9328 12.4472 15.9026C13.0791 15.8723 13.5093 15.7748 13.8892 15.6269C14.2791 15.4757 14.6085 15.2706 14.9379 14.9412C15.2673 14.6118 15.469 14.279 15.6236 13.8891C15.7682 13.5126 15.869 13.0824 15.8993 12.4505C15.9262 11.8185 15.9362 11.6168 15.9362 10.0034C15.9362 8.39331 15.9295 8.19163 15.8993 7.55634C15.869 6.9244 15.7682 6.49415 15.6236 6.11768C15.4724 5.72777 15.2673 5.39499 14.9379 5.06558C14.6085 4.73617 14.2791 4.53449 13.8858 4.37987C13.506 4.23197 13.0757 4.13449 12.4438 4.10424C11.8119 4.07398 11.6102 4.06726 10.0001 4.06726ZM9.46901 5.13617C9.62699 5.13617 9.80178 5.13617 10.0001 5.13617C11.5833 5.13617 11.7715 5.14289 12.3967 5.16978C12.9749 5.19667 13.2875 5.29415 13.4993 5.37482C13.7749 5.48239 13.9732 5.61012 14.1816 5.81852C14.39 6.02692 14.5177 6.22524 14.6253 6.50087C14.706 6.70928 14.8035 7.02524 14.8304 7.6034C14.8572 8.22861 14.864 8.41684 14.864 10C14.864 11.5832 14.8572 11.7715 14.8304 12.3967C14.8035 12.9748 14.706 13.2874 14.6253 13.4992C14.5177 13.7748 14.39 13.9731 14.1816 14.1815C13.9732 14.39 13.7783 14.5177 13.4993 14.6252C13.2909 14.7059 12.9749 14.8034 12.3967 14.8303C11.7715 14.8572 11.5833 14.8639 10.0001 14.8639C8.41691 14.8639 8.22867 14.8572 7.60346 14.8303C7.02531 14.8034 6.7127 14.7059 6.50094 14.6252C6.22531 14.5177 6.02699 14.39 5.81859 14.1815C5.61018 13.9731 5.48245 13.7748 5.37489 13.4992C5.29422 13.2908 5.19674 12.9748 5.16985 12.3967C5.14296 11.7715 5.13623 11.5832 5.13623 10C5.13623 8.41684 5.14296 8.22861 5.16985 7.6034C5.19674 7.02524 5.29422 6.71264 5.37489 6.50087C5.48245 6.22524 5.61018 6.02692 5.81859 5.81852C6.02699 5.61012 6.22531 5.48239 6.50094 5.37482C6.70934 5.29415 7.02531 5.19667 7.60346 5.16978C8.15136 5.14289 8.36313 5.13617 9.46901 5.13617ZM13.1665 6.12104C12.7732 6.12104 12.4539 6.44037 12.4539 6.83365C12.4539 7.22692 12.7732 7.54625 13.1665 7.54625C13.5598 7.54625 13.8791 7.22692 13.8791 6.83365C13.8791 6.44037 13.5598 6.12104 13.1665 6.12104ZM10.0001 6.95466C8.31607 6.95466 6.95472 8.31936 6.95472 10C6.95472 11.6841 8.31943 13.0454 10.0001 13.0454C11.6841 13.0454 13.0455 11.6807 13.0455 10C13.0455 8.316 11.6841 6.95466 10.0001 6.95466ZM10.0001 8.02356C11.0925 8.02356 11.9766 8.9076 11.9766 10C11.9766 11.0925 11.0925 11.9765 10.0001 11.9765C8.90766 11.9765 8.02363 11.0925 8.02363 10C8.02363 8.9076 8.90766 8.02356 10.0001 8.02356Z" fill="white"/>
</svg>
