<svg width="35" height="35" viewBox="0 0 35 35" fill="none" xmlns="http://www.w3.org/2000/svg">
<rect width="35" height="35" rx="5" fill="white"/>
<path d="M17 26C14.7667 26 12.875 25.225 11.325 23.675C9.775 22.125 9 20.2333 9 18C9 15.7667 9.775 13.875 11.325 12.325C12.875 10.775 14.7667 10 17 10C18.15 10 19.25 10.2375 20.3 10.7125C21.35 11.1875 22.25 11.8667 23 12.75V10H25V17H18V15H22.2C21.6667 14.0667 20.9375 13.3333 20.0125 12.8C19.0875 12.2667 18.0833 12 17 12C15.3333 12 13.9167 12.5833 12.75 13.75C11.5833 14.9167 11 16.3333 11 18C11 19.6667 11.5833 21.0833 12.75 22.25C13.9167 23.4167 15.3333 24 17 24C18.2833 24 19.4417 23.6333 20.475 22.9C21.5083 22.1667 22.2333 21.2 22.65 20H24.75C24.2833 21.7667 23.3333 23.2083 21.9 24.325C20.4667 25.4417 18.8333 26 17 26Z" fill="#333132"/>
</svg>
