<svg width="35" height="35" viewBox="0 0 35 35" fill="none" xmlns="http://www.w3.org/2000/svg">
<rect width="35" height="35" rx="5" fill="#EEEEEE"/>
<path d="M11 20C10.45 20 9.97917 19.8042 9.5875 19.4125C9.19583 19.0208 9 18.55 9 18C9 17.45 9.19583 16.9792 9.5875 16.5875C9.97917 16.1958 10.45 16 11 16C11.55 16 12.0208 16.1958 12.4125 16.5875C12.8042 16.9792 13 17.45 13 18C13 18.55 12.8042 19.0208 12.4125 19.4125C12.0208 19.8042 11.55 20 11 20ZM17 20C16.45 20 15.9792 19.8042 15.5875 19.4125C15.1958 19.0208 15 18.55 15 18C15 17.45 15.1958 16.9792 15.5875 16.5875C15.9792 16.1958 16.45 16 17 16C17.55 16 18.0208 16.1958 18.4125 16.5875C18.8042 16.9792 19 17.45 19 18C19 18.55 18.8042 19.0208 18.4125 19.4125C18.0208 19.8042 17.55 20 17 20ZM23 20C22.45 20 21.9792 19.8042 21.5875 19.4125C21.1958 19.0208 21 18.55 21 18C21 17.45 21.1958 16.9792 21.5875 16.5875C21.9792 16.1958 22.45 16 23 16C23.55 16 24.0208 16.1958 24.4125 16.5875C24.8042 16.9792 25 17.45 25 18C25 18.55 24.8042 19.0208 24.4125 19.4125C24.0208 19.8042 23.55 20 23 20Z" fill="#333132"/>
</svg>
