<svg width="50" height="50" viewBox="0 0 50 50" fill="none" xmlns="http://www.w3.org/2000/svg">
<g clip-path="url(#clip0_49_14)">
<path fill-rule="evenodd" clip-rule="evenodd" d="M25 0C38.8072 0 50 11.1928 50 25C50 38.8072 38.8072 50 25 50C11.1928 50 0 38.8072 0 25C0 11.1928 11.1928 0 25 0ZM37.0328 13.6807L32.5726 36.1685C32.5726 36.1685 31.9489 37.7279 30.2335 36.9791L19.972 28.901C19.972 28.901 31.3876 18.6397 31.8553 18.2031C32.3231 17.7664 32.1671 17.673 32.1671 17.673C32.1982 17.1427 31.325 17.673 31.325 17.673L16.1982 27.2794L9.89788 25.1584C9.89788 25.1584 8.93098 24.8152 8.83753 24.0669C8.74393 23.3181 9.92908 22.9128 9.92908 22.9128L34.9745 13.0881C34.9745 13.0881 37.0328 12.1836 37.0328 13.6807ZM23.8873 32.114L19.8162 35.8258C19.8162 35.8258 19.4979 36.0671 19.1497 35.9159L19.9293 29.0212L23.8873 32.114Z" fill="white"/>
</g>
<defs>
<clipPath id="clip0_49_14">
<rect width="50" height="50" fill="white"/>
</clipPath>
</defs>
</svg>
