<svg width="50" height="50" viewBox="0 0 50 50" fill="none" xmlns="http://www.w3.org/2000/svg">
<g clip-path="url(#clip0_35_1063)">
<path fill-rule="evenodd" clip-rule="evenodd" d="M25 50C38.8071 50 50 38.8071 50 25C50 11.1929 38.8071 0 25 0C11.1929 0 0 11.1929 0 25C0 38.8071 11.1929 50 25 50Z" fill="white"/>
<path d="M31.1172 34.6143H34.3791L27.2528 26.469L35.6366 15.3855H29.0719L23.9306 22.1078L18.0476 15.3855H14.7836L22.4059 24.0977L14.3635 34.6143H21.0944L25.7418 28.47L31.1172 34.6143ZM29.9723 17.3381H31.7799L20.1124 32.7643H18.1729L29.9723 17.3381Z" fill="#333132"/>
</g>
<defs>
<clipPath id="clip0_35_1063">
<rect width="50" height="50" fill="white" transform="matrix(1 0 0 -1 0 50)"/>
</clipPath>
</defs>
</svg>
